# xmcd CD database file generated by Grip 3.3.1
# 
# Track frame offsets:
#       150
#       12970
#       28455
#       44275
#       60637
#       75015
#       87590
#       104360
#       123150
#       141372
#       160087
# 
# Disc length: 2326 seconds
# 
# Revision: 4
# Processed by: cddbd v1.5.2PL0 Copyright (c) Steve Scherf et al.
# Submitted via: Grip 3.3.1
# 
DISCID=8709140b
DTITLE=Various Artist - Muppets from Space
DYEAR=1999
DGENRE=Funk
TTITLE0=The Dust Brothers - Jeymes - Shining Star
TTITLE1=George Clinton - Pepe - Flashlight (Spaceflight)
TTITLE2=The Commodores - Brick House
TTITLE3=The Getaway People - Getaway
TTITLE4=Aaron Love - G. Love and Special Sauce - Special Sauce - Dazz
TTITLE5=The Isley Brothers - It's Your Thing
TTITLE6=The O'Jays - Survival
TTITLE7=James Brown - Get up Offa That Thing
TTITLE8=The Alien Gonzos - Celebration
TTITLE9=Billy Preston - Outa-Space
TTITLE10=Dave Goelz - I'm Going to Go Back There Someday
EXTD=
EXTT0=
EXTT1=
EXTT2=
EXTT3=
EXTT4=
EXTT5=
EXTT6=
EXTT7=
EXTT8=
EXTT9=
EXTT10=
PLAYORDER=
